<svg width="340" height="84" viewBox="0 0 340 84" fill="none" xmlns="http://www.w3.org/2000/svg">
<path fill-rule="evenodd" clip-rule="evenodd" d="M288.731 35.1087C292.234 38.9021 292.956 43.5963 290.345 45.5963C287.734 47.5963 282.778 46.1436 279.276 42.351C275.774 38.5585 275.051 33.8639 277.662 31.8641C280.274 29.8646 285.229 31.3174 288.731 35.1087Z" fill="#F5E3CB"/>
<path fill-rule="evenodd" clip-rule="evenodd" d="M318.735 26.9975C317.902 31.9233 319.948 36.2716 323.307 36.7124C326.665 37.1532 330.063 33.5187 330.897 28.5936C331.73 23.6687 329.683 19.32 326.325 18.8793C322.967 18.4389 319.569 22.0737 318.735 26.9975Z" fill="#F5E3CB"/>
<path fill-rule="evenodd" clip-rule="evenodd" d="M298.988 23.0164C301.527 27.3958 301.149 32.1295 298.144 33.5901C295.138 35.0497 290.643 32.6828 288.104 28.3038C285.565 23.9244 285.944 19.1905 288.949 17.7305C291.955 16.2704 296.449 18.6369 298.988 23.0164Z" fill="#F5E3CB"/>
<path fill-rule="evenodd" clip-rule="evenodd" d="M303.248 21.8026C303.568 26.7618 306.573 30.6121 309.96 30.4012C313.349 30.1912 315.836 25.9998 315.517 21.0406C315.197 16.0811 312.192 12.2313 308.804 12.442C305.416 12.6526 302.928 16.8433 303.248 21.8026Z" fill="#F5E3CB"/>
<path fill-rule="evenodd" clip-rule="evenodd" d="M299.597 39.3826C299.188 40.8161 296.797 45.8327 294.707 47.8771C292.618 49.9214 290.124 52.7671 292.075 57.2956C294.026 61.8251 299.916 62.4431 303.337 61.3582C306.758 60.2742 313.132 57.9827 317.99 57.3485C322.847 56.7144 328.615 54.7268 328.63 49.8985C328.645 45.0702 324.681 43.0318 321.774 42.0472C318.867 41.0634 313.36 37.2876 311.44 35.3952C309.52 33.5037 301.96 31.0958 299.597 39.3826Z" fill="#F5E3CB"/>
<path fill-rule="evenodd" clip-rule="evenodd" d="M16.3826 29.6511C20.0064 32.0305 21.5862 35.6812 19.9126 37.8071C18.2389 39.9331 13.9451 39.7285 10.3218 37.3497C6.69843 34.971 5.11838 31.3201 6.79212 29.1942C8.46602 27.0686 12.7598 27.2733 16.3826 29.6511Z" fill="#F5E3CB"/>
<path fill-rule="evenodd" clip-rule="evenodd" d="M38.8133 17.3507C39.1918 21.4925 41.7629 24.6048 44.5571 24.3043C47.3512 24.0038 49.3095 20.4037 48.9314 16.2624C48.553 12.1213 45.9818 9.00867 43.1878 9.30923C40.3941 9.61001 38.4356 13.2104 38.8133 17.3507Z" fill="#F5E3CB"/>
<path fill-rule="evenodd" clip-rule="evenodd" d="M22.0397 17.9288C25.0141 20.9701 25.7173 24.8683 23.6108 26.636C21.5041 28.4031 17.385 27.3701 14.4109 24.3291C11.4366 21.2877 10.7333 17.3895 12.84 15.6222C14.9466 13.8547 19.0654 14.8874 22.0397 17.9288Z" fill="#F5E3CB"/>
<path fill-rule="evenodd" clip-rule="evenodd" d="M25.2156 16.1624C26.5286 20.106 29.7646 22.6289 32.4446 21.7959C35.1251 20.9635 36.2337 17.091 34.9212 13.1471C33.6088 9.20303 30.3722 6.68076 27.6919 7.51366C25.0116 8.34645 23.9027 12.2185 25.2156 16.1624Z" fill="#F5E3CB"/>
<path fill-rule="evenodd" clip-rule="evenodd" d="M26.0909 31.0208C26.0675 32.2575 25.2137 36.7728 23.9695 38.8308C22.7255 40.8887 21.3271 43.6723 23.8573 46.9456C26.3877 50.2197 31.2507 49.5679 33.7679 48.0243C36.2857 46.4812 40.919 43.3868 44.6864 41.9262C48.4537 40.4657 52.664 37.7351 51.6494 33.8359C50.6348 29.9366 47.0175 29.0658 44.4728 28.8391C41.9285 28.613 36.7015 26.6418 34.7568 25.4897C32.8126 24.3382 26.2275 23.8719 26.0909 31.0208Z" fill="#F5E3CB"/>
<path fill-rule="evenodd" clip-rule="evenodd" d="M155.753 57.546C156.393 60.8156 155.103 63.7437 152.87 64.088C150.638 64.4322 148.309 62.0614 147.668 58.7923C147.028 55.5232 148.318 52.5948 150.551 52.2507C152.783 51.9069 155.112 54.2777 155.753 57.546Z" fill="#F5E3CB"/>
<path fill-rule="evenodd" clip-rule="evenodd" d="M175.888 62.4956C173.617 65.0759 173.215 68.2145 174.992 69.508C176.768 70.8014 180.048 69.7589 182.32 67.1792C184.591 64.5995 184.992 61.4606 183.216 60.1673C181.44 58.8743 178.159 59.9168 175.888 62.4956Z" fill="#F5E3CB"/>
<path fill-rule="evenodd" clip-rule="evenodd" d="M165.937 53.8311C165.809 57.1406 163.87 59.7509 161.606 59.6618C159.343 59.5723 157.612 56.8168 157.739 53.5076C157.867 50.1982 159.806 47.5878 162.07 47.6772C164.333 47.7664 166.065 50.5216 165.937 53.8311Z" fill="#F5E3CB"/>
<path fill-rule="evenodd" clip-rule="evenodd" d="M168.79 54.5793C167.172 57.5358 167.505 60.6845 169.535 61.6119C171.565 62.5399 174.523 60.8952 176.141 57.9389C177.76 54.9825 177.426 51.8338 175.396 50.9062C173.366 49.9785 170.408 51.6229 168.79 54.5793Z" fill="#F5E3CB"/>
<path fill-rule="evenodd" clip-rule="evenodd" d="M160.532 63.5751C159.775 64.2745 156.573 66.4246 154.625 66.9555C152.677 67.4864 150.205 68.3539 149.684 71.5666C149.162 74.7798 152.333 76.9588 154.699 77.3926C157.066 77.8269 161.574 78.4796 164.605 79.6178C167.636 80.7559 171.683 81.3958 173.447 78.6189C175.211 75.842 173.667 73.441 172.349 71.974C171.03 70.5076 169.228 66.6278 168.809 64.9434C168.39 63.2596 164.906 59.5327 160.532 63.5751Z" fill="#F5E3CB"/>
</svg>
