<svg width="177" height="107" viewBox="0 0 177 107" fill="none" xmlns="http://www.w3.org/2000/svg">
<path fill-rule="evenodd" clip-rule="evenodd" d="M116.922 44.5232C116.303 51.2002 112.316 56.1166 108.015 55.5076C103.714 54.8986 100.728 48.9935 101.346 42.3176C101.964 35.6416 105.951 30.7247 110.252 31.3339C114.553 31.9436 117.539 37.8486 116.922 44.5232Z" fill="#F5E3CB"/>
<path fill-rule="evenodd" clip-rule="evenodd" d="M150.831 64.8801C145.229 68.5654 142.764 74.3955 145.324 77.9055C147.884 81.4153 154.499 81.274 160.101 77.59C165.702 73.9055 168.167 68.0748 165.607 64.5653C163.047 61.0562 156.432 61.1973 150.831 64.8801Z" fill="#F5E3CB"/>
<path fill-rule="evenodd" clip-rule="evenodd" d="M137.737 42.8926C135.68 49.2133 130.669 53.149 126.544 51.6843C122.419 50.2187 120.743 43.9066 122.8 37.5865C124.857 31.266 129.869 27.33 133.993 28.7955C138.118 30.2605 139.794 36.572 137.737 42.8926Z" fill="#F5E3CB"/>
<path fill-rule="evenodd" clip-rule="evenodd" d="M142.39 45.6923C137.779 50.48 136.66 56.753 139.893 59.7039C143.125 62.656 149.484 61.1675 154.095 56.3804C158.706 51.5931 159.824 45.3198 156.591 42.3683C153.359 39.4168 147 40.9047 142.39 45.6923Z" fill="#F5E3CB"/>
<path fill-rule="evenodd" clip-rule="evenodd" d="M121.987 58.6943C120.217 59.6088 113.168 61.9225 109.305 61.8364C105.442 61.7505 100.433 62.0136 97.7183 67.8919C95.0024 73.7711 99.6245 79.7598 103.727 81.9374C107.829 84.1162 115.738 87.9309 120.673 91.8397C125.608 95.7484 132.68 99.2771 137.435 94.9419C142.19 90.6068 140.673 85.1155 139.059 81.5474C137.444 77.9804 136.263 69.5003 136.417 66.0251C136.57 62.5511 132.223 53.41 121.987 58.6943Z" fill="#F5E3CB"/>
<path fill-rule="evenodd" clip-rule="evenodd" d="M21.7317 42.7438C26.5851 45.4803 28.9596 50.1732 27.0373 53.2282C25.1149 56.2832 19.6228 56.5424 14.77 53.8066C9.91712 51.0709 7.54224 46.3777 9.46478 43.3228C11.3876 40.2683 16.8796 40.0093 21.7317 42.7438Z" fill="#F5E3CB"/>
<path fill-rule="evenodd" clip-rule="evenodd" d="M48.6844 23.9412C49.5767 29.4411 53.1611 33.2899 56.6922 32.5404C60.2232 31.791 62.3624 26.7264 61.4708 21.2272C60.5787 15.7284 56.994 11.8791 53.4633 12.6286C49.9329 13.3783 47.7933 18.4433 48.6844 23.9412Z" fill="#F5E3CB"/>
<path fill-rule="evenodd" clip-rule="evenodd" d="M27.5638 26.4048C31.6586 30.111 32.9416 35.2479 30.43 37.8788C27.9181 40.5088 22.5621 39.6364 18.4677 35.9305C14.3731 32.2242 13.09 27.0872 15.6019 24.4569C18.1136 21.8263 23.4691 22.6984 27.5638 26.4048Z" fill="#F5E3CB"/>
<path fill-rule="evenodd" clip-rule="evenodd" d="M31.2667 23.827C33.332 28.949 37.7091 31.9279 41.0447 30.4785C44.381 29.0298 45.4114 23.7022 43.3469 18.5798C41.2823 13.4571 36.9045 10.4791 33.5685 11.9285C30.2325 13.3777 29.2017 18.7047 31.2667 23.827Z" fill="#F5E3CB"/>
<path fill-rule="evenodd" clip-rule="evenodd" d="M34.1988 43.7148C34.2911 45.3679 33.6521 51.4991 32.2751 54.3994C30.8982 57.2996 29.3969 61.1872 32.9329 65.2422C36.4691 69.2982 42.5803 67.8267 45.6247 65.4552C48.6698 63.0845 54.2485 58.3818 58.8887 55.9664C63.5286 53.5512 68.6061 49.3864 66.9331 44.3085C65.26 39.2306 60.5807 38.5162 57.3267 38.5286C54.0734 38.5417 47.2413 36.558 44.6581 35.2613C42.0756 33.9653 33.6673 34.1578 34.1988 43.7148Z" fill="#F5E3CB"/>
</svg>
